<svg xmlns="http://www.w3.org/2000/svg" id="uuid-0146f91d-4dcf-4919-8264-b84e95d0a656" viewBox="0 0 394.44 77.45"><path d="M176.4,69.17s.02.03.02.08c0,.06-.01.08-.02.08-.35,0-.62.14-.81.42-.2.27-.29.62-.29,1.06v6.58s-.02.04-.06.04c-.04.01-.07.01-.08,0l-6.02-6.85v5c0,.45.09.81.27,1.08.19.27.46.4.79.4.01,0,.02.03.02.08,0,.04-.01.06-.02.06-.24,0-.42,0-.54-.02h-1.5c-.16.02-.36.02-.62.02-.03,0-.04-.02-.04-.06,0-.05.01-.08.04-.08.38,0,.67-.13.88-.4.22-.28.33-.64.33-1.08v-5.44c-.28-.32-.52-.53-.73-.65-.2-.11-.4-.17-.6-.17-.03,0-.04-.03-.04-.08,0-.05.01-.08.04-.08l.52.02c.12.02.29.02.5.02l.98-.02c.11-.01.26-.02.44-.02.07,0,.11.02.15.06.04.03.1.1.19.21.14.21.24.34.31.4l4.44,5.15v-4.17c0-.46-.1-.82-.29-1.08-.18-.26-.44-.4-.77-.4-.02,0-.02-.03-.02-.08,0-.05,0-.08.02-.08l.54.02c.28.02.51.02.71.02.17,0,.4,0,.71-.02l.58-.02ZM160.66,77.07s.06.03.06.08c0,.04-.02.06-.06.06-.17,0-.43,0-.79-.02-.38-.01-.65-.02-.81-.02-.21,0-.47.01-.77.02-.29.02-.53.02-.71.02-.03,0-.04-.02-.04-.06,0-.05.01-.08.04-.08.22,0,.38-.02.48-.06.11-.05.17-.15.17-.27,0-.14-.09-.38-.27-.73l-.88-1.73h-3.17l-.5,1.1c-.11.25-.17.49-.17.71,0,.31.11.55.33.73.22.17.51.25.88.25.04,0,.06.03.06.08,0,.04-.02.06-.06.06-.16,0-.38,0-.67-.02-.32-.01-.6-.02-.83-.02s-.52.01-.85.02c-.29.02-.52.02-.69.02-.04,0-.06-.02-.06-.06,0-.05.02-.08.06-.08.23,0,.43-.05.58-.15.17-.11.33-.29.5-.54.17-.25.36-.62.58-1.12l2.79-6.12s.05-.04.1-.04c.07,0,.11.02.12.04l3.21,6.31c.3.61.55,1.04.75,1.27.19.24.4.35.6.35ZM156.89,73.9l-1.48-2.92-1.33,2.92h2.81ZM190.88,71.07c.38.6.56,1.27.56,2,0,.83-.2,1.57-.58,2.21-.38.62-.89,1.11-1.54,1.46-.64.35-1.35.52-2.12.52-.28,0-.6-.01-.98-.02-.14-.02-.31-.02-.52-.02-.2-.01-.42-.02-.67-.02h-.94c-.18.02-.41.02-.69.02-.03,0-.04-.02-.04-.06,0-.05.01-.08.04-.08.26,0,.46-.02.58-.06.14-.05.23-.14.27-.25.05-.12.08-.32.08-.58v-5.96c0-.25-.03-.43-.08-.54-.04-.12-.12-.21-.25-.25-.12-.05-.32-.08-.58-.08-.03,0-.04-.03-.04-.08,0-.05.01-.08.04-.08l.67.02c.4.02.71.02.94.02.36,0,.72-.01,1.08-.04.44-.01.75-.02.92-.02.86,0,1.62.18,2.29.52.68.33,1.2.8,1.56,1.4ZM189.86,73.34c0-.72-.11-1.38-.33-1.98-.22-.59-.54-1.06-.96-1.4-.41-.34-.88-.52-1.42-.52s-.91.06-1.1.17c-.2.1-.29.31-.29.65v5.77c0,.35.09.59.27.73.18.14.53.21,1.04.21.54,0,1.02-.14,1.44-.42.43-.28.76-.69,1-1.23.23-.55.35-1.21.35-1.98ZM166.36,29.15c-.99-1.65-2.2-3.05-3.62-4.19-1.43-1.14-3.33-2.47-5.71-4-2.2-1.42-3.94-2.62-5.23-3.62-1.28-1-2.35-2.17-3.23-3.5s-1.31-2.85-1.31-4.56c0-2.09.6-3.69,1.81-4.77,1.21-1.09,2.76-1.65,4.67-1.65,2.86,0,5.08,1.05,6.67,3.15,1.59,2.08,2.99,4.62,4.19,7.62l.56,1.35c.05.14.2.18.44.1.23-.07.35-.18.35-.33V4.27c0-.33-.08-.6-.23-.81-.14-.22-.42-.42-.83-.6-1.06-.43-2.44-.8-4.15-1.1-1.71-.32-3.4-.48-5.06-.48-2.53,0-4.93.42-7.21,1.25-2.28.83-4.15,2.12-5.6,3.85-1.45,1.74-2.17,3.87-2.17,6.4,0,1.99.45,3.72,1.35,5.21.9,1.47,1.98,2.73,3.23,3.77,1.26,1.04,3.04,2.3,5.33,3.77,2.32,1.53,4.15,2.84,5.48,3.94,1.33,1.1,2.46,2.43,3.4,4,.93,1.57,1.4,3.4,1.4,5.48,0,2.47-.62,4.22-1.85,5.25-1.24,1.02-2.81,1.52-4.71,1.52-2.1,0-3.97-.69-5.6-2.06-1.64-1.38-2.99-2.96-4.06-4.77-1.07-1.8-2.32-4.16-3.75-7.06-.04-.19-.19-.28-.44-.25-.24.03-.35.14-.35.31v.08l.23,11.33c0,.38.05.65.17.81.12.17.3.35.54.54.8.71,2.38,1.36,4.71,1.96,2.33.59,4.57.9,6.71.9,2.9,0,5.53-.54,7.88-1.6,2.36-1.07,4.2-2.56,5.52-4.48,1.33-1.93,2-4.13,2-6.6,0-2.14-.5-4.03-1.5-5.67ZM52.04,71.07c.38.6.56,1.27.56,2,0,.83-.2,1.57-.58,2.21-.38.62-.89,1.11-1.54,1.46-.64.35-1.35.52-2.12.52-.28,0-.6-.01-.98-.02-.14-.02-.31-.02-.52-.02-.2-.01-.42-.02-.67-.02h-.94c-.18.02-.41.02-.69.02-.03,0-.04-.02-.04-.06,0-.05.01-.08.04-.08.26,0,.46-.02.58-.06.14-.05.23-.14.27-.25.05-.12.08-.32.08-.58v-5.96c0-.25-.03-.43-.08-.54-.04-.12-.12-.21-.25-.25-.12-.05-.32-.08-.58-.08-.03,0-.04-.03-.04-.08,0-.05.01-.08.04-.08l.67.02c.4.02.71.02.94.02.36,0,.72-.01,1.08-.04.44-.01.75-.02.92-.02.86,0,1.62.18,2.29.52.68.33,1.2.8,1.56,1.4ZM51.02,73.34c0-.72-.11-1.38-.33-1.98-.22-.59-.54-1.06-.96-1.4-.41-.34-.88-.52-1.42-.52s-.91.06-1.1.17c-.2.1-.29.31-.29.65v5.77c0,.35.09.59.27.73.18.14.53.21,1.04.21.54,0,1.02-.14,1.44-.42.43-.28.76-.69,1-1.23.23-.55.35-1.21.35-1.98ZM237.96,0c-.27,0-.42.09-.46.27-.24.72-.77,1.2-1.6,1.44-.83.24-2.16.35-3.96.35l-4.85.06c-3.14.1-6.11.15-8.92.15-5.47,0-10.25-.07-14.33-.21-2.71,0-4.06-.52-4.06-1.56,0-.23-.14-.35-.4-.35s-.4.12-.4.35c0,1.52-.12,3.79-.35,6.81-.24,3.02-.45,5.47-.65,7.38,0,.14.11.22.35.25.23.03.38-.03.44-.19,2.47-7.36,6.53-11.04,12.19-11.04,1.33,0,2.21.29,2.65.85.43.57.65,1.66.65,3.27v33.04c0,1.42-.16,2.47-.48,3.17-.31.7-.88,1.16-1.71,1.4-.83.24-2.1.35-3.81.35-.14,0-.21.15-.21.44s.07.42.21.42c1.76,0,3.15-.02,4.15-.06l5.77-.08,5.92.08c1,.04,2.35.06,4.06.06.15,0,.23-.14.23-.42s-.08-.44-.23-.44c-1.75,0-3.04-.11-3.85-.35-.81-.23-1.35-.69-1.65-1.35-.28-.67-.42-1.73-.42-3.21V7.98c0-1.67.22-2.79.67-3.38.46-.59,1.38-.9,2.75-.9,2.86,0,5.26.92,7.21,2.75,1.96,1.82,3.29,4.56,4,8.23.04.14.18.21.42.21s.38-.07.38-.21c0-1.9.08-4.42.25-7.56.17-3.14.32-5.42.46-6.85,0-.18-.14-.27-.4-.27ZM89.28,69.67c.04-.12.12-.21.25-.25.14-.05.34-.08.6-.08.03,0,.04-.03.04-.08,0-.05-.02-.08-.04-.08l-.67.02c-.39.02-.72.02-.98.02-.24,0-.56,0-.96-.02l-.69-.02s-.02.03-.02.08c0,.06,0,.08.02.08.28,0,.48.03.6.08.12.04.21.12.25.25.05.11.08.29.08.54v5.96c0,.27-.03.46-.08.58-.04.11-.12.2-.25.25-.12.04-.33.06-.6.06-.02,0-.02.03-.02.08,0,.04,0,.06.02.06.29,0,.52,0,.69-.02h1.94c.17.02.39.02.67.02.03,0,.04-.02.04-.06,0-.05-.02-.08-.04-.08-.28,0-.48-.02-.6-.06-.12-.05-.21-.14-.25-.25-.04-.12-.06-.32-.06-.58v-5.92c0-.26.02-.46.06-.58ZM78.25,73.32c-.25-.21-.59-.45-1.02-.73-.39-.26-.7-.48-.94-.67-.24-.18-.44-.39-.6-.62-.16-.23-.23-.51-.23-.81,0-.38.11-.66.33-.85.22-.21.51-.31.85-.31.51,0,.91.19,1.19.56.29.38.54.83.75,1.38l.1.25s.04.04.08.02c.04-.01.06-.03.06-.06v-1.9c0-.05-.02-.09-.04-.12-.03-.04-.08-.08-.15-.12-.2-.07-.45-.13-.75-.19-.31-.05-.61-.08-.92-.08-.46,0-.9.08-1.31.23-.41.14-.74.37-1,.69-.25.31-.38.69-.38,1.15,0,.36.07.68.23.94.17.27.36.49.58.69.23.18.55.41.96.67.43.28.76.52,1,.71.23.2.44.44.6.73.17.28.25.6.25.98,0,.45-.11.77-.33.96-.22.18-.51.27-.85.27-.38,0-.71-.12-1-.38-.29-.25-.54-.53-.73-.85-.2-.33-.43-.76-.69-1.27,0-.04-.02-.05-.06-.04-.04,0-.06.02-.06.04v.02l.04,2.04c0,.07,0,.12.02.15.03.03.06.06.1.1.14.12.42.24.83.35.43.09.83.15,1.21.15.53,0,1-.09,1.42-.27.43-.19.76-.46,1-.81.25-.34.38-.74.38-1.19,0-.39-.09-.73-.27-1.02-.18-.3-.41-.55-.67-.75ZM111.72,46.23c0,.28-.12.42-.35.42-.95,0-2.42-.05-4.42-.15-2.1-.09-3.6-.15-4.5-.15-1.2,0-2.65.05-4.35.15-1.61.1-2.9.15-3.85.15-.18,0-.27-.14-.27-.42s.09-.44.27-.44c1.23,0,2.12-.13,2.67-.4.55-.26.83-.73.83-1.4,0-.8-.47-2.16-1.42-4.06l-4.85-9.62h-17.56l-2.77,6.21c-.62,1.38-.94,2.66-.94,3.85,0,1.71.6,3.04,1.81,4,1.22.95,2.85,1.42,4.9,1.42.23,0,.35.15.35.44s-.12.42-.35.42c-.85,0-2.08-.05-3.71-.15-1.81-.09-3.38-.15-4.71-.15s-2.82.05-4.62.15c-1.62.1-2.94.15-3.94.15-.18,0-.27-.14-.27-.42s.09-.44.27-.44c1.33,0,2.45-.27,3.35-.81.9-.55,1.8-1.53,2.71-2.94.9-1.4,1.97-3.48,3.21-6.23L84.67,1.77c.09-.14.31-.21.65-.21.39,0,.6.07.65.21l17.83,35.1c1.67,3.38,3.04,5.71,4.12,7,1.09,1.28,2.24,1.92,3.44,1.92.23,0,.35.15.35.44ZM90.38,28.31l-8.19-16.27-7.35,16.27h15.54ZM66.12,75.15s-.06.01-.06.02c-.2.57-.49.99-.9,1.27-.41.28-.94.42-1.6.42h-.42c-.21,0-.36-.06-.46-.19-.08-.12-.12-.3-.12-.54v-2.92h1.04c.51,0,.9.1,1.17.31.26.2.4.47.4.81,0,.03.03.04.08.04.05,0,.08-.01.08-.04,0-.17-.01-.4-.02-.69l-.02-.62.02-1.15s-.03-.04-.08-.04c-.04,0-.06.02-.06.04,0,.31-.14.55-.4.73-.27.17-.65.25-1.15.25h-1.06v-2.62c0-.23.05-.41.17-.52.12-.11.31-.17.56-.17h.4c.53,0,.95.12,1.27.38.33.24.57.6.71,1.1.01.02.04.02.08.02.04-.01.06-.03.06-.04l-.02-1.71c0-.08-.04-.12-.12-.12h-5.46s-.04.03-.04.08c0,.06.01.08.04.08.26,0,.46.03.58.08.14.04.23.12.27.25.04.11.06.29.06.54v5.96c0,.27-.02.46-.06.58-.04.11-.12.2-.25.25-.12.04-.33.06-.6.06-.03,0-.04.03-.04.08,0,.04.01.06.04.06h5.69c.08,0,.13-.01.15-.04.03-.03.04-.07.04-.15,0-.55.04-1.17.12-1.83,0,0-.02,0-.04-.02-.02-.01-.03-.02-.04-.02ZM121.72,69.2c-.31.02-.54.02-.71.02-.2,0-.43,0-.71-.02l-.54-.02s-.02.03-.02.08c0,.06,0,.08.02.08.33,0,.59.14.77.4.19.27.29.62.29,1.08v4.17l-4.44-5.15c-.07-.05-.18-.19-.31-.4-.08-.11-.15-.18-.19-.21-.03-.04-.08-.06-.15-.06-.18,0-.33.01-.44.02l-.98.02c-.21,0-.38,0-.5-.02l-.52-.02s-.04.03-.04.08c0,.06.01.08.04.08.21,0,.41.06.6.17.21.11.45.33.73.65v5.44c0,.45-.11.81-.33,1.08-.21.27-.5.4-.88.4-.03,0-.04.03-.04.08,0,.04.01.06.04.06.26,0,.47,0,.62-.02h1.5c.12.02.3.02.54.02.01,0,.02-.02.02-.06,0-.05-.01-.08-.02-.08-.33,0-.6-.13-.79-.4-.18-.28-.27-.64-.27-1.08v-5l6.02,6.85s.04.01.08,0c.04,0,.06-.02.06-.04v-6.58c0-.44.09-.8.29-1.06.19-.28.46-.42.81-.42.01,0,.02-.03.02-.08,0-.05-.01-.08-.02-.08l-.58.02ZM133.93,73.32c-.25-.21-.59-.45-1.02-.73-.39-.26-.7-.48-.94-.67-.24-.18-.44-.39-.6-.62-.16-.23-.23-.51-.23-.81,0-.38.11-.66.33-.85.22-.21.51-.31.85-.31.51,0,.91.19,1.19.56.29.38.54.83.75,1.38l.1.25s.04.04.08.02c.04-.01.06-.03.06-.06v-1.9c0-.05-.02-.09-.04-.12-.03-.04-.08-.08-.15-.12-.2-.07-.45-.13-.75-.19-.31-.05-.61-.08-.92-.08-.46,0-.9.08-1.31.23-.41.14-.74.37-1,.69-.25.31-.38.69-.38,1.15,0,.36.07.68.23.94.17.27.36.49.58.69.23.18.55.41.96.67.43.28.76.52,1,.71.23.2.44.44.6.73.17.28.25.6.25.98,0,.45-.11.77-.33.96-.22.18-.51.27-.85.27-.38,0-.71-.12-1-.38s-.54-.53-.73-.85c-.2-.33-.43-.76-.69-1.27,0-.04-.02-.05-.06-.04-.04,0-.06.02-.06.04v.02l.04,2.04c0,.07,0,.12.02.15.03.03.06.06.1.1.14.12.42.24.83.35.43.09.83.15,1.21.15.53,0,1-.09,1.42-.27.43-.19.76-.46,1-.81.25-.34.38-.74.38-1.19,0-.39-.09-.73-.27-1.02-.18-.3-.41-.55-.67-.75ZM305.07,68.86c-.06.12-.16.21-.31.25-.14.04-.38.06-.71.06l-.88.02c-.56.02-1.09.02-1.6.02-.99,0-1.85-.01-2.58-.04-.49,0-.73-.09-.73-.27,0-.04-.03-.06-.08-.06-.04,0-.06.02-.06.06,0,.28-.02.69-.06,1.23-.04.54-.08.99-.1,1.33,0,.02.02.03.06.04.04,0,.06-.01.06-.04.46-1.32,1.19-1.98,2.21-1.98.23,0,.39.05.46.15.08.1.12.29.12.58v5.96c0,.27-.03.46-.08.58-.06.11-.16.2-.31.25-.14.04-.36.06-.67.06-.03,0-.04.03-.04.08,0,.04.01.06.04.06.3,0,.55,0,.73-.02h2.12c.17.02.41.02.73.02.03,0,.04-.02.04-.06,0-.05-.02-.08-.04-.08-.32,0-.56-.02-.71-.06-.14-.05-.24-.14-.29-.25-.06-.12-.08-.32-.08-.58v-5.92c0-.3.04-.51.12-.6.08-.11.25-.17.5-.17.51,0,.94.17,1.29.5.36.32.6.81.73,1.48.01.02.04.02.08.02s.06,0,.06-.02c0-.34.01-.8.04-1.38.03-.57.05-.98.08-1.23,0-.04-.03-.06-.08-.06-.04,0-.06.02-.06.06ZM290.63,74.84s-.04.02-.04.04c-.17.61-.49,1.1-.98,1.46-.49.35-1.06.52-1.73.52h-.44c-.22,0-.39-.01-.5-.04-.1-.04-.17-.11-.21-.21-.03-.09-.04-.26-.04-.48v-5.9c0-.26.02-.45.06-.56.05-.12.15-.21.27-.25.12-.05.32-.08.58-.08.03,0,.04-.03.04-.08,0-.05-.02-.08-.04-.08l-.65.02c-.41.02-.73.02-.98.02-.27,0-.59,0-.98-.02l-.65-.02s-.04.03-.04.08c0,.06.01.08.04.08.26,0,.46.03.58.08.12.04.21.12.25.25.05.11.08.29.08.54v5.96c0,.27-.03.46-.08.58-.04.11-.12.2-.25.25-.12.04-.32.06-.58.06-.03,0-.04.03-.04.08,0,.04.01.06.04.06h6.06c.07,0,.11-.01.15-.04.03-.03.04-.07.04-.15,0-.57.04-1.28.12-2.12,0-.01-.02-.03-.04-.04-.03-.01-.05-.02-.06-.02ZM394.31,2.06l-3.23.06c-1.71.1-3.04.15-3.98.15-1.06,0-2.34-.05-3.85-.15l-3.06-.06c-.1,0-.15.15-.15.44s.05.42.15.42c1.84,0,3.29.74,4.33,2.21,1.05,1.47,1.58,3.49,1.58,6.06v23.04l-24.69-28.46c-.33-.38-.91-1.11-1.71-2.21-.47-.62-.81-1.03-1-1.21-.2-.19-.48-.29-.85-.29-.96,0-1.77.02-2.44.06l-5.42.08c-1.18,0-2.08-.03-2.71-.08l-3-.06c-.1,0-.15.15-.15.44s.05.42.15.42c1.19,0,2.34.33,3.46.98,1.12.64,2.47,1.81,4.04,3.52v30.17c0,2.53-.61,4.53-1.83,6-1.21,1.47-2.85,2.21-4.94,2.21-.16,0-.23.15-.23.44s.07.42.23.42c1.51,0,2.67-.02,3.48-.06l4.44-.08,3.85.08c.71.04,1.73.06,3.06.06.09,0,.15-.14.15-.42s-.05-.44-.15-.44c-1.86,0-3.31-.73-4.35-2.21-1.04-1.47-1.56-3.47-1.56-6V9.83l33.44,38.1c.09.08.25.1.46.06.22-.04.33-.14.33-.29V11.19c0-2.51.55-4.52,1.65-6.02,1.09-1.5,2.59-2.25,4.5-2.25.08,0,.12-.14.12-.42s-.04-.44-.12-.44ZM315.68,23.9c0,4.32-1.15,8.29-3.44,11.92-2.28,3.61-5.33,6.47-9.17,8.56-3.82,2.08-7.97,3.12-12.44,3.12s-8.35-1.03-11.81-3.1c-3.45-2.07-6.1-4.88-7.98-8.42-1.88-3.54-2.81-7.4-2.81-11.58,0-4.9,1.23-9.09,3.71-12.58,2.47-3.5,5.65-6.13,9.52-7.9,3.88-1.76,7.83-2.65,11.88-2.65,4.51,0,8.48,1.06,11.9,3.19,3.43,2.11,6.06,4.91,7.9,8.38,1.83,3.47,2.75,7.16,2.75,11.06ZM306.91,25.96c0-4.38-.67-8.28-2-11.73-1.33-3.44-3.27-6.14-5.79-8.08-2.52-1.96-5.46-2.94-8.83-2.94-4.33,0-7.67,1.64-10,4.9-2.32,3.25-3.48,7.8-3.48,13.65,0,4.61.7,8.74,2.1,12.38,1.4,3.64,3.32,6.48,5.77,8.52,2.46,2.04,5.23,3.06,8.31,3.06,2.67,0,5.05-.77,7.17-2.31,2.12-1.54,3.78-3.8,4.96-6.77,1.19-2.97,1.79-6.53,1.79-10.67ZM104.72,74.07c-.46,0-1.05-.02-1.77-.06-.03,0-.05.02-.06.04v.06c0,.07.02.1.06.1.43,0,.73.04.9.1.17.06.27.18.31.35.05.17.08.47.08.92s-.04.78-.12,1c-.08.22-.22.38-.42.46-.2.07-.47.1-.81.1-.68,0-1.29-.17-1.83-.52-.53-.36-.95-.85-1.25-1.48-.31-.64-.46-1.36-.46-2.17,0-.73.13-1.38.4-1.94.26-.55.61-.98,1.06-1.27.46-.3.96-.46,1.5-.46s1.01.12,1.42.38c.4.24.72.52.96.85.25.33.43.65.54.94.01.03.04.04.08.04.05-.01.08-.03.08-.06l-.17-1.79c-.02-.11-.03-.17-.04-.19-.02-.03-.06-.06-.15-.1-.25-.09-.58-.17-1-.23-.42-.07-.83-.1-1.23-.1-.96,0-1.82.18-2.58.54-.75.35-1.35.84-1.79,1.48-.43.64-.65,1.37-.65,2.19,0,.77.19,1.46.58,2.08.39.62.94,1.12,1.65,1.48.72.36,1.57.54,2.56.54.88,0,1.86-.12,2.98-.35.05-.01.09-.03.1-.04.03-.03.04-.06.04-.1s-.02-.15-.06-.31c-.03-.17-.04-.44-.04-.83,0-.48,0-.82.02-1.02.03-.19.07-.32.12-.38.07-.07.18-.1.33-.1.04,0,.06-.03.06-.08,0-.05-.02-.08-.06-.08-.47.02-.93.02-1.35.02ZM331.71,69.2c-.31.02-.54.02-.71.02-.2,0-.43,0-.71-.02l-.54-.02s-.02.03-.02.08c0,.06,0,.08.02.08.33,0,.59.14.77.4.19.27.29.62.29,1.08v4.17l-4.44-5.15c-.07-.05-.18-.19-.31-.4-.08-.11-.15-.18-.19-.21-.03-.04-.08-.06-.15-.06-.18,0-.33.01-.44.02l-.98.02c-.21,0-.38,0-.5-.02l-.52-.02s-.04.03-.04.08c0,.06.01.08.04.08.21,0,.41.06.6.17.21.11.45.33.73.65v5.44c0,.45-.11.81-.33,1.08-.21.27-.5.4-.88.4-.03,0-.04.03-.04.08,0,.04.01.06.04.06.26,0,.47,0,.62-.02h1.5c.12.02.3.02.54.02.01,0,.02-.02.02-.06,0-.05-.01-.08-.02-.08-.33,0-.6-.13-.79-.4-.18-.28-.27-.64-.27-1.08v-5l6.02,6.85s.04.01.08,0c.04,0,.06-.02.06-.04v-6.58c0-.44.09-.8.29-1.06.19-.28.46-.42.81-.42.01,0,.02-.03.02-.08,0-.05-.01-.08-.02-.08l-.58.02ZM346.46,74.07c-.46,0-1.05-.02-1.77-.06-.03,0-.05.02-.06.04v.06c0,.07.02.1.06.1.43,0,.73.04.9.1.17.06.27.18.31.35.05.17.08.47.08.92s-.04.78-.12,1c-.08.22-.22.38-.42.46-.2.07-.47.1-.81.1-.68,0-1.29-.17-1.83-.52-.53-.36-.95-.85-1.25-1.48-.31-.64-.46-1.36-.46-2.17,0-.73.13-1.38.4-1.94.26-.55.61-.98,1.06-1.27.46-.3.96-.46,1.5-.46s1.01.12,1.42.38c.4.24.72.52.96.85.25.33.43.65.54.94.01.03.04.04.08.04.05-.01.08-.03.08-.06l-.17-1.79c-.02-.11-.03-.17-.04-.19-.02-.03-.06-.06-.15-.1-.25-.09-.58-.17-1-.23-.42-.07-.83-.1-1.23-.1-.96,0-1.82.18-2.58.54-.75.35-1.35.84-1.79,1.48-.43.64-.65,1.37-.65,2.19,0,.77.19,1.46.58,2.08.39.62.94,1.12,1.65,1.48.72.36,1.57.54,2.56.54.88,0,1.86-.12,2.98-.35.05-.01.09-.03.1-.04.03-.03.04-.06.04-.1s-.02-.15-.06-.31c-.03-.17-.04-.44-.04-.83,0-.48,0-.82.02-1.02.03-.19.07-.32.12-.38.07-.07.18-.1.33-.1.04,0,.06-.03.06-.08,0-.05-.02-.08-.06-.08-.47.02-.93.02-1.35.02ZM276.72,69.2c-.31.02-.54.02-.71.02-.2,0-.45,0-.77-.02l-.62-.02s-.02.03-.02.08c0,.06,0,.08.02.08.38,0,.67.14.88.4.21.27.31.62.31,1.08v3.58c0,.81-.2,1.43-.6,1.88-.41.43-.96.65-1.67.65s-1.31-.24-1.71-.73c-.41-.5-.6-1.26-.6-2.27v-3.67c0-.26.02-.46.06-.58.05-.12.15-.21.27-.25.12-.05.32-.08.58-.08.03,0,.04-.03.04-.08,0-.05-.02-.08-.04-.08l-.67.02c-.39.02-.72.02-.98.02-.22,0-.54,0-.94-.02l-.67-.02s-.04.03-.04.08c0,.06.01.08.04.08.26,0,.46.03.58.08.12.04.21.12.25.25.05.11.08.29.08.54v4.17c0,.61.14,1.15.42,1.6.28.46.66.81,1.15,1.06.48.23,1.05.35,1.69.35s1.18-.12,1.67-.38c.48-.25.86-.59,1.12-1.04.26-.46.4-.98.4-1.58v-3.58c0-.46.09-.82.27-1.08.19-.26.46-.4.79-.4.03,0,.04-.03.04-.08,0-.05-.02-.08-.04-.08l-.58.02ZM216.03,75.03c-.36.74-.74,1.27-1.15,1.58-.41.32-.9.48-1.48.48-.62,0-1.18-.16-1.65-.48-.47-.32-.85-.78-1.12-1.38-.27-.59-.4-1.28-.4-2.06s.13-1.47.4-2.04c.26-.58.62-1.03,1.08-1.33.46-.32.98-.48,1.56-.48.62,0,1.16.19,1.6.56.44.36.78.9,1.02,1.6.01.03.04.04.08.04.04-.01.06-.03.06-.06l-.17-1.79c0-.08-.02-.15-.04-.19-.02-.04-.06-.07-.15-.1-.25-.09-.58-.17-1-.23-.42-.07-.83-.1-1.23-.1-.91,0-1.73.18-2.48.54-.74.35-1.32.84-1.75,1.48-.42.64-.62,1.37-.62,2.19s.2,1.5.6,2.12c.42.62.98,1.11,1.71,1.46.73.35,1.56.52,2.48.52.8,0,1.6-.14,2.4-.42.07-.03.11-.05.12-.08.03-.04.05-.11.06-.21l.19-1.6s-.02-.04-.06-.04c-.04-.01-.07,0-.08.02ZM33.33,35.27c-.11-.07-.24-.1-.38-.1-.2,0-.29.05-.29.15-1.04,3.18-2.68,5.54-4.92,7.06-2.24,1.52-5.21,2.27-8.92,2.27h-2.35c-1.14,0-1.97-.33-2.5-1-.52-.67-.77-1.69-.77-3.06v-16.12h5.83c2.8,0,4.96.56,6.46,1.69,1.5,1.11,2.25,2.64,2.25,4.58,0,.1.14.15.42.15s.44-.05.44-.15c0-.94-.05-2.22-.15-3.83l-.06-3.44.06-6.42c0-.14-.14-.21-.4-.21s-.38.07-.38.21c0,1.71-.74,3.04-2.23,4-1.47.95-3.58,1.42-6.33,1.42h-5.92V7.92c0-1.29.32-2.24.98-2.85.67-.62,1.71-.94,3.15-.94h2.15c2.94,0,5.32.67,7.12,2,1.8,1.33,3.09,3.39,3.85,6.15.05.14.21.19.46.15.26-.05.4-.13.4-.23l-.15-9.48c0-.43-.24-.65-.71-.65H.21c-.14,0-.21.15-.21.44s.07.42.21.42c1.48,0,2.58.14,3.29.4.71.27,1.18.73,1.42,1.4.23.67.35,1.71.35,3.12v33.04c0,1.42-.12,2.47-.35,3.17-.24.7-.7,1.16-1.4,1.4-.68.24-1.79.35-3.31.35-.14,0-.21.15-.21.44s.07.42.21.42h31.54c.43,0,.71-.08.85-.25.14-.17.21-.44.21-.81,0-3.04.23-6.42.71-10.15,0-.04-.06-.09-.19-.17ZM248.21,69.2c-.31.02-.54.02-.71.02-.2,0-.43,0-.71-.02l-.54-.02s-.02.03-.02.08c0,.06,0,.08.02.08.33,0,.59.14.77.4.19.27.29.62.29,1.08v4.17l-4.44-5.15c-.07-.05-.18-.19-.31-.4-.08-.11-.15-.18-.19-.21-.03-.04-.08-.06-.15-.06-.18,0-.33.01-.44.02l-.98.02c-.21,0-.38,0-.5-.02l-.52-.02s-.04.03-.04.08c0,.06.01.08.04.08.21,0,.41.06.6.17.21.11.45.33.73.65v5.44c0,.45-.11.81-.33,1.08-.21.27-.5.4-.88.4-.03,0-.04.03-.04.08,0,.04.01.06.04.06.26,0,.47,0,.62-.02h1.5c.12.02.3.02.54.02.01,0,.02-.02.02-.06,0-.05-.01-.08-.02-.08-.33,0-.6-.13-.79-.4-.18-.28-.27-.64-.27-1.08v-5l6.02,6.85s.04.01.08,0c.04,0,.06-.02.06-.04v-6.58c0-.44.09-.8.29-1.06.19-.28.46-.42.81-.42.01,0,.02-.03.02-.08,0-.05-.01-.08-.02-.08l-.58.02ZM231.91,71.13c.33.62.5,1.29.5,1.98,0,.78-.21,1.49-.62,2.15-.41.66-.95,1.17-1.65,1.54-.68.38-1.43.56-2.23.56s-1.52-.18-2.15-.54c-.61-.38-1.09-.88-1.44-1.52-.33-.64-.5-1.34-.5-2.1,0-.88.22-1.62.67-2.25.44-.64,1.01-1.11,1.71-1.42.71-.32,1.42-.48,2.15-.48.82,0,1.53.19,2.15.56.62.38,1.09.89,1.42,1.52ZM230.84,73.49c0-.79-.12-1.49-.38-2.1-.24-.62-.58-1.11-1.04-1.46-.45-.36-.97-.54-1.58-.54-.78,0-1.39.3-1.81.9-.42.58-.62,1.41-.62,2.46,0,.83.12,1.58.38,2.23.26.66.61,1.17,1.04,1.54.44.36.94.54,1.5.54.48,0,.92-.14,1.29-.42.39-.28.69-.68.9-1.21.22-.54.33-1.19.33-1.94ZM260.42,73.32c-.25-.21-.59-.45-1.02-.73-.39-.26-.7-.48-.94-.67-.24-.18-.44-.39-.6-.62-.16-.23-.23-.51-.23-.81,0-.38.11-.66.33-.85.22-.21.51-.31.85-.31.51,0,.91.19,1.19.56.29.38.54.83.75,1.38l.1.25s.04.04.08.02c.04-.01.06-.03.06-.06v-1.9c0-.05-.02-.09-.04-.12-.03-.04-.08-.08-.15-.12-.2-.07-.45-.13-.75-.19-.31-.05-.61-.08-.92-.08-.46,0-.9.08-1.31.23-.41.14-.74.37-1,.69-.25.31-.38.69-.38,1.15,0,.36.07.68.23.94.17.27.36.49.58.69.23.18.55.41.96.67.43.28.76.52,1,.71.23.2.44.44.6.73.17.28.25.6.25.98,0,.45-.11.77-.33.96-.22.18-.51.27-.85.27-.38,0-.71-.12-1-.38s-.54-.53-.73-.85c-.2-.33-.43-.76-.69-1.27,0-.04-.02-.05-.06-.04-.04,0-.06.02-.06.04v.02l.04,2.04c0,.07,0,.12.02.15.03.03.06.06.1.1.14.12.42.24.83.35.43.09.83.15,1.21.15.53,0,1-.09,1.42-.27.43-.19.76-.46,1-.81.25-.34.38-.74.38-1.19,0-.39-.09-.73-.27-1.02-.18-.3-.41-.55-.67-.75ZM315.12,69.67c.04-.12.12-.21.25-.25.14-.05.34-.08.6-.08.03,0,.04-.03.04-.08,0-.05-.02-.08-.04-.08l-.67.02c-.39.02-.72.02-.98.02-.24,0-.56,0-.96-.02l-.69-.02s-.02.03-.02.08c0,.06,0,.08.02.08.28,0,.48.03.6.08.12.04.21.12.25.25.05.11.08.29.08.54v5.96c0,.27-.03.46-.08.58-.04.11-.12.2-.25.25-.12.04-.33.06-.6.06-.02,0-.02.03-.02.08,0,.04,0,.06.02.06.29,0,.52,0,.69-.02h1.94c.17.02.39.02.67.02.03,0,.04-.02.04-.06,0-.05-.02-.08-.04-.08-.28,0-.48-.02-.6-.06-.12-.05-.21-.14-.25-.25-.04-.12-.06-.32-.06-.58v-5.92c0-.26.02-.46.06-.58Z"></path></svg>